# xmcd
#
# Track frame offsets:
#	150
#	14054
#	25640
#	40670
#	51041
#	65591
#	81860
#	98984
#	114130
#	130351
#	144761
#	159517
#	177606
#	189124
#	201010
#	214193
#	231568
#	242327
#
# Disc length: 3404 seconds
#
# Revision: 3
# Processed by: cddbd v1.5.2PL0 Copyright (c) Steve Scherf et al.
# Submitted via: EasyCDDAExtractor 15.2.5.1
#
DISCID=ef0d4a12
DTITLE=Various Artist - 50 years of Country - (1960 - 1980) CD2
DYEAR=2000
DGENRE=Country
TTITLE0=George Jones - A good year for the roses
TTITLE1=Sonny James - Bright lights
TTITLE2=Merle Haggard - Daddy Frank
TTITLE3=Tony Booth - The keys in the mailbox
TTITLE4=Glen Campbell - Rhinestone cowboy
TTITLE5=Billie Jo Spears - Blanket on the ground
TTITLE6=Nitty Gritty Dirt Band - All I have to do is dream
TTITLE7=Jessi Colter - I'm not Lisa
TTITLE8=Charlie Rich - My Elusive dreams
TTITLE9=Dr. Hook - If not you
TTITLE10=Bellamy Brothers - Let your love flow
TTITLE11=Johnny Cash - One Piece at the time
TTITLE12=Crystal Gayle - Don't it make my brown eyes blue
TTITLE13=Billie Crash Craddock - I cheated on good woman's love
TTITLE14=The Kendalls - Pittsburgh stealers
TTITLE15=Don Schlitz - The Gambler
TTITLE16=Hank Cochran and Willie Nelson - Ain't life hell
TTITLE17=Susie Allinson - Maybe baby
EXTD=YEAR: 2000
EXTT0=
EXTT1=
EXTT2=
EXTT3=
EXTT4=
EXTT5=
EXTT6=
EXTT7=
EXTT8=
EXTT9=
EXTT10=
EXTT11=
EXTT12=
EXTT13=
EXTT14=
EXTT15=
EXTT16=
EXTT17=
PLAYORDER=
